<svg width="31" height="33" viewBox="0 0 31 33" fill="none" xmlns="http://www.w3.org/2000/svg">
<path d="M6.7016 0.468567C6.08504 0.468567 5.47769 0.700155 4.97156 1.12473L4.89794 1.16333L4.86113 1.20193L1.1802 5.17752L1.21701 5.21612C0.0805197 6.31616 -0.269169 7.9614 0.223156 9.3847C0.227757 9.39435 0.218555 9.41365 0.223156 9.4233C1.22161 12.4195 3.77526 18.2043 8.76292 23.4344C13.769 28.6837 19.3594 31.2553 22.1247 32.3891H22.1615C23.5925 32.8909 25.1431 32.5338 26.2474 31.5399L29.9651 27.6416C30.9405 26.6187 30.9405 24.8432 29.9651 23.8203L25.1799 18.8026L25.1431 18.7254C24.1676 17.7026 22.4376 17.7026 21.4621 18.7254L19.1063 21.1957C18.2551 20.7663 16.226 19.6662 14.2843 17.7219C12.3564 15.792 11.3718 13.5726 11.0083 12.7041L13.3641 10.2339C14.3533 9.19654 14.3717 7.46928 13.3273 6.45126L13.3641 6.41266L13.2537 6.29686L8.54207 1.20193L8.50526 1.16333L8.43164 1.12473C7.92551 0.700155 7.31815 0.468567 6.7016 0.468567ZM6.7016 2.93884C6.78902 2.93884 6.87644 2.98226 6.95926 3.05463L11.6709 8.11097L11.7813 8.22676C11.7721 8.21711 11.8503 8.34738 11.7077 8.49695L8.76292 11.5848L8.21078 12.1252L8.46845 12.8971C8.46845 12.8971 9.82119 16.6942 12.6647 19.536L12.9224 19.7676C15.6601 22.3874 18.8855 23.8203 18.8855 23.8203L19.6217 24.1677L23.1186 20.5009C23.321 20.2886 23.2842 20.2886 23.4867 20.5009L28.3087 25.5573C28.5111 25.7695 28.5111 25.6924 28.3087 25.9046L24.7014 29.6872C24.1584 30.1745 23.5833 30.2759 22.8977 30.0346C20.229 28.9346 15.0435 26.5463 10.4193 21.6975C5.75836 16.81 3.32434 11.2664 2.43172 8.57414C2.25227 8.07237 2.3811 7.32936 2.79981 6.95303L2.87343 6.87583L6.44393 3.05463C6.52675 2.98226 6.61418 2.93884 6.7016 2.93884Z" fill="#E20813"/>
</svg>
